<mxfile host="app.diagrams.net" modified="2023-04-04T12:03:33.467Z" agent="Mozilla/5.0 (Windows NT 10.0; Win64; x64) AppleWebKit/537.36 (KHTML, like Gecko) Chrome/111.0.0.0 Safari/537.36" etag="T-jGzw1rpjnQCgcdynoo" version="21.1.4" type="device">
  <diagram name="PÃ¡gina-1" id="bYHK4RdTL4FwLyHIVqnZ">
    <mxGraphModel dx="2313" dy="2029" grid="1" gridSize="10" guides="1" tooltips="1" connect="1" arrows="1" fold="1" page="1" pageScale="1" pageWidth="827" pageHeight="1169" math="0" shadow="0">
      <root>
        <mxCell id="0" />
        <mxCell id="1" parent="0" />
        <mxCell id="WvmWmqay0xvE1zMyGp8o-6" value="&lt;font style=&quot;font-size: 14px;&quot;&gt;&lt;b&gt;Central EV CS R Service&lt;/b&gt;&lt;/font&gt;" style="rounded=0;whiteSpace=wrap;html=1;fillColor=#B9E0A5;" parent="1" vertex="1">
          <mxGeometry x="10" y="-220" width="160" height="80" as="geometry" />
        </mxCell>
        <mxCell id="WvmWmqay0xvE1zMyGp8o-9" style="edgeStyle=orthogonalEdgeStyle;rounded=0;orthogonalLoop=1;jettySize=auto;html=1;strokeWidth=3;strokeColor=#ff3333;" parent="1" source="3X_EuSHc9vnNttb9hlpx-11" target="WvmWmqay0xvE1zMyGp8o-6" edge="1">
          <mxGeometry relative="1" as="geometry">
            <mxPoint x="-100" y="90" as="sourcePoint" />
            <Array as="points">
              <mxPoint x="-200" y="-20" />
              <mxPoint x="-200" y="-170" />
            </Array>
          </mxGeometry>
        </mxCell>
        <mxCell id="3X_EuSHc9vnNttb9hlpx-47" style="edgeStyle=orthogonalEdgeStyle;rounded=0;orthogonalLoop=1;jettySize=auto;html=1;strokeColor=#97D077;strokeWidth=3;entryX=0;entryY=0.75;entryDx=0;entryDy=0;exitX=1;exitY=0.75;exitDx=0;exitDy=0;" parent="1" source="WvmWmqay0xvE1zMyGp8o-7" target="WvmWmqay0xvE1zMyGp8o-8" edge="1">
          <mxGeometry relative="1" as="geometry">
            <mxPoint x="50" y="90" as="sourcePoint" />
            <Array as="points">
              <mxPoint x="130" y="205" />
              <mxPoint x="130" y="205" />
            </Array>
          </mxGeometry>
        </mxCell>
        <mxCell id="3X_EuSHc9vnNttb9hlpx-48" value="EVCSNM / EVRSRM" style="edgeLabel;html=1;align=center;verticalAlign=middle;resizable=0;points=[];" parent="3X_EuSHc9vnNttb9hlpx-47" vertex="1" connectable="0">
          <mxGeometry x="-0.3371" y="-1" relative="1" as="geometry">
            <mxPoint x="26" y="-2" as="offset" />
          </mxGeometry>
        </mxCell>
        <mxCell id="3X_EuSHc9vnNttb9hlpx-53" style="edgeStyle=orthogonalEdgeStyle;rounded=0;orthogonalLoop=1;jettySize=auto;html=1;strokeColor=#FF3333;strokeWidth=3;exitX=-0.024;exitY=0.351;exitDx=0;exitDy=0;exitPerimeter=0;" parent="1" source="WvmWmqay0xvE1zMyGp8o-8" edge="1">
          <mxGeometry relative="1" as="geometry">
            <Array as="points">
              <mxPoint x="167" y="180" />
            </Array>
            <mxPoint x="150" y="10" as="sourcePoint" />
            <mxPoint x="10" y="180" as="targetPoint" />
          </mxGeometry>
        </mxCell>
        <mxCell id="3X_EuSHc9vnNttb9hlpx-54" value="EVRSRN" style="edgeLabel;html=1;align=center;verticalAlign=middle;resizable=0;points=[];" parent="3X_EuSHc9vnNttb9hlpx-53" vertex="1" connectable="0">
          <mxGeometry x="0.3401" y="-2" relative="1" as="geometry">
            <mxPoint x="27" y="2" as="offset" />
          </mxGeometry>
        </mxCell>
        <mxCell id="WvmWmqay0xvE1zMyGp8o-11" style="edgeStyle=orthogonalEdgeStyle;rounded=0;orthogonalLoop=1;jettySize=auto;html=1;strokeWidth=3;strokeColor=#97d077;" parent="1" source="WvmWmqay0xvE1zMyGp8o-6" edge="1">
          <mxGeometry relative="1" as="geometry">
            <mxPoint x="-100" as="targetPoint" />
            <Array as="points">
              <mxPoint x="-220" y="-190" />
              <mxPoint x="-220" />
            </Array>
          </mxGeometry>
        </mxCell>
        <mxCell id="fRTnCUBCAOByE5vfyjok-1" value="" style="group" vertex="1" connectable="0" parent="1">
          <mxGeometry x="160" y="-103" width="159" height="340" as="geometry" />
        </mxCell>
        <mxCell id="3X_EuSHc9vnNttb9hlpx-5" value="" style="rounded=0;whiteSpace=wrap;html=1;fillColor=#FFE599;strokeWidth=2;rotation=0;" parent="fRTnCUBCAOByE5vfyjok-1" vertex="1">
          <mxGeometry width="159" height="340" as="geometry" />
        </mxCell>
        <mxCell id="WvmWmqay0xvE1zMyGp8o-1" value="&lt;font style=&quot;font-size: 14px;&quot;&gt;EV CS R Service&lt;/font&gt;" style="rounded=0;whiteSpace=wrap;html=1;fillColor=#B9E0A5;" parent="fRTnCUBCAOByE5vfyjok-1" vertex="1">
          <mxGeometry x="10" y="180" width="140" height="60" as="geometry" />
        </mxCell>
        <mxCell id="3X_EuSHc9vnNttb9hlpx-2" value="&lt;b&gt;&lt;font style=&quot;font-size: 18px;&quot;&gt;OBU&lt;/font&gt;&lt;/b&gt;" style="text;html=1;strokeColor=none;fillColor=none;align=center;verticalAlign=middle;whiteSpace=wrap;rounded=0;movable=1;resizable=1;rotatable=1;deletable=1;editable=1;locked=0;connectable=1;" parent="fRTnCUBCAOByE5vfyjok-1" vertex="1">
          <mxGeometry x="3.3400000000000034" y="10.000000000000014" width="153.32" height="39.39" as="geometry" />
        </mxCell>
        <mxCell id="3X_EuSHc9vnNttb9hlpx-17" value="&lt;font style=&quot;font-size: 15px;&quot;&gt;MQTT Broker&lt;/font&gt;" style="sketch=0;outlineConnect=0;fontColor=#232F3E;gradientColor=none;fillColor=#06060A;strokeColor=none;dashed=0;verticalLabelPosition=bottom;verticalAlign=top;align=center;html=1;fontSize=12;fontStyle=0;aspect=fixed;pointerEvents=1;shape=mxgraph.aws4.mq_broker;labelBackgroundColor=none;labelBorderColor=none;strokeWidth=4;" parent="fRTnCUBCAOByE5vfyjok-1" vertex="1">
          <mxGeometry x="38.943456221198176" y="53.39285714285714" width="81.11607142857143" height="81.11607142857143" as="geometry" />
        </mxCell>
        <mxCell id="WvmWmqay0xvE1zMyGp8o-8" value="&lt;font style=&quot;font-size: 14px;&quot;&gt;Access&lt;/font&gt;" style="rounded=0;whiteSpace=wrap;html=1;fillColor=#f8cecc;strokeColor=#b85450;" parent="fRTnCUBCAOByE5vfyjok-1" vertex="1">
          <mxGeometry x="10" y="260" width="140" height="60" as="geometry" />
        </mxCell>
        <mxCell id="fRTnCUBCAOByE5vfyjok-2" value="" style="group" vertex="1" connectable="0" parent="1">
          <mxGeometry x="-140" y="-103" width="161" height="340" as="geometry" />
        </mxCell>
        <mxCell id="3X_EuSHc9vnNttb9hlpx-8" value="" style="group;fillColor=#647687;fontColor=#ffffff;strokeColor=#314354;movable=1;resizable=1;rotatable=1;deletable=1;editable=1;locked=0;connectable=1;container=0;rotation=0;" parent="fRTnCUBCAOByE5vfyjok-2" vertex="1" connectable="0">
          <mxGeometry width="161" height="252" as="geometry" />
        </mxCell>
        <mxCell id="3X_EuSHc9vnNttb9hlpx-9" value="" style="rounded=0;whiteSpace=wrap;html=1;strokeWidth=2;fillColor=#b0e3e6;strokeColor=#0e8088;movable=1;resizable=1;rotatable=1;deletable=1;editable=1;locked=0;connectable=1;rotation=0;" parent="fRTnCUBCAOByE5vfyjok-2" vertex="1">
          <mxGeometry x="1" y="1" width="159" height="339" as="geometry" />
        </mxCell>
        <mxCell id="3X_EuSHc9vnNttb9hlpx-11" value="&lt;font style=&quot;font-size: 15px;&quot;&gt;MQTT Broker&lt;/font&gt;" style="sketch=0;outlineConnect=0;fontColor=#232F3E;gradientColor=none;fillColor=#06060A;strokeColor=none;dashed=0;verticalLabelPosition=bottom;verticalAlign=top;align=center;html=1;fontSize=12;fontStyle=0;aspect=fixed;pointerEvents=1;shape=mxgraph.aws4.mq_broker;labelBackgroundColor=none;labelBorderColor=none;strokeWidth=4;movable=1;resizable=1;rotatable=1;deletable=1;editable=1;locked=0;connectable=1;" parent="fRTnCUBCAOByE5vfyjok-2" vertex="1">
          <mxGeometry x="40.5" y="53.39" width="80" height="80" as="geometry" />
        </mxCell>
        <mxCell id="WvmWmqay0xvE1zMyGp8o-2" value="&lt;font style=&quot;font-size: 14px;&quot;&gt;EV CS R Service&lt;/font&gt;" style="rounded=0;whiteSpace=wrap;html=1;fillColor=#B9E0A5;" parent="fRTnCUBCAOByE5vfyjok-2" vertex="1">
          <mxGeometry x="10.5" y="180" width="140" height="60" as="geometry" />
        </mxCell>
        <mxCell id="3X_EuSHc9vnNttb9hlpx-10" value="&lt;b&gt;&lt;font style=&quot;font-size: 18px;&quot;&gt;RSU&lt;/font&gt;&lt;/b&gt;" style="text;html=1;strokeColor=none;fillColor=none;align=center;verticalAlign=middle;whiteSpace=wrap;rounded=0;movable=1;resizable=1;rotatable=1;deletable=1;editable=1;locked=0;connectable=1;" parent="fRTnCUBCAOByE5vfyjok-2" vertex="1">
          <mxGeometry x="23.5" y="13" width="114" height="30" as="geometry" />
        </mxCell>
        <mxCell id="WvmWmqay0xvE1zMyGp8o-7" value="&lt;font style=&quot;font-size: 14px;&quot;&gt;Access&lt;/font&gt;" style="rounded=0;whiteSpace=wrap;html=1;fillColor=#f8cecc;strokeColor=#b85450;" parent="fRTnCUBCAOByE5vfyjok-2" vertex="1">
          <mxGeometry x="10" y="260" width="140" height="60" as="geometry" />
        </mxCell>
        <mxCell id="3X_EuSHc9vnNttb9hlpx-20" value="" style="rounded=0;whiteSpace=wrap;html=1;fillColor=#CCE5FF;strokeWidth=2;" parent="1" vertex="1">
          <mxGeometry x="590" y="-275" width="320" height="510" as="geometry" />
        </mxCell>
        <mxCell id="3X_EuSHc9vnNttb9hlpx-21" value="" style="rounded=0;whiteSpace=wrap;html=1;strokeWidth=2;fillColor=#CCFFCC;" parent="1" vertex="1">
          <mxGeometry x="609" y="-215" width="285" height="350" as="geometry" />
        </mxCell>
        <mxCell id="3X_EuSHc9vnNttb9hlpx-22" value="&lt;b&gt;&lt;font style=&quot;font-size: 18px;&quot;&gt;Smartphone&lt;/font&gt;&lt;/b&gt;" style="text;html=1;strokeColor=none;fillColor=none;align=center;verticalAlign=middle;whiteSpace=wrap;rounded=0;" parent="1" vertex="1">
          <mxGeometry x="693" y="-265" width="114" height="30" as="geometry" />
        </mxCell>
        <mxCell id="3X_EuSHc9vnNttb9hlpx-23" value="&lt;b&gt;&lt;font style=&quot;font-size: 18px;&quot;&gt;Mobile Application&lt;/font&gt;&lt;/b&gt;" style="text;html=1;strokeColor=none;fillColor=none;align=center;verticalAlign=middle;whiteSpace=wrap;rounded=0;" parent="1" vertex="1">
          <mxGeometry x="631.5" y="-205" width="237" height="30" as="geometry" />
        </mxCell>
        <mxCell id="3X_EuSHc9vnNttb9hlpx-24" value="" style="verticalLabelPosition=bottom;align=center;outlineConnect=0;dashed=0;html=1;verticalAlign=top;shape=mxgraph.pid.flow_sensors.coriolis;strokeWidth=1;fillColor=default;" parent="1" vertex="1">
          <mxGeometry x="680" y="168" width="50" height="50" as="geometry" />
        </mxCell>
        <mxCell id="3X_EuSHc9vnNttb9hlpx-25" value="" style="verticalLabelPosition=bottom;align=center;outlineConnect=0;dashed=0;html=1;verticalAlign=top;shape=mxgraph.pid.flow_sensors.coriolis;strokeWidth=1;fillColor=default;" parent="1" vertex="1">
          <mxGeometry x="845" y="167" width="50" height="50" as="geometry" />
        </mxCell>
        <mxCell id="3X_EuSHc9vnNttb9hlpx-26" value="" style="verticalLabelPosition=bottom;align=center;outlineConnect=0;dashed=0;html=1;verticalAlign=top;shape=mxgraph.pid.flow_sensors.coriolis;strokeWidth=1;fillColor=default;" parent="1" vertex="1">
          <mxGeometry x="770" y="169" width="50" height="50" as="geometry" />
        </mxCell>
        <mxCell id="3X_EuSHc9vnNttb9hlpx-27" value="" style="endArrow=classic;html=1;rounded=0;entryX=0.008;entryY=0.526;entryDx=0;entryDy=0;entryPerimeter=0;exitX=0.5;exitY=0;exitDx=0;exitDy=0;exitPerimeter=0;strokeWidth=2;" parent="1" source="3X_EuSHc9vnNttb9hlpx-25" target="3X_EuSHc9vnNttb9hlpx-39" edge="1">
          <mxGeometry width="50" height="50" relative="1" as="geometry">
            <mxPoint x="590" y="235" as="sourcePoint" />
            <mxPoint x="540" y="125" as="targetPoint" />
            <Array as="points">
              <mxPoint x="870" y="145" />
              <mxPoint x="600" y="145" />
              <mxPoint x="600" y="33" />
            </Array>
          </mxGeometry>
        </mxCell>
        <mxCell id="3X_EuSHc9vnNttb9hlpx-28" value="" style="endArrow=none;html=1;rounded=0;strokeWidth=2;entryX=0.5;entryY=0;entryDx=0;entryDy=0;entryPerimeter=0;" parent="1" target="3X_EuSHc9vnNttb9hlpx-24" edge="1">
          <mxGeometry width="50" height="50" relative="1" as="geometry">
            <mxPoint x="705" y="145" as="sourcePoint" />
            <mxPoint x="550" y="145" as="targetPoint" />
          </mxGeometry>
        </mxCell>
        <mxCell id="3X_EuSHc9vnNttb9hlpx-29" value="" style="endArrow=none;html=1;rounded=0;strokeWidth=2;entryX=0.5;entryY=0;entryDx=0;entryDy=0;entryPerimeter=0;" parent="1" target="3X_EuSHc9vnNttb9hlpx-26" edge="1">
          <mxGeometry width="50" height="50" relative="1" as="geometry">
            <mxPoint x="795" y="145" as="sourcePoint" />
            <mxPoint x="560" y="155" as="targetPoint" />
          </mxGeometry>
        </mxCell>
        <mxCell id="3X_EuSHc9vnNttb9hlpx-30" value="" style="verticalLabelPosition=bottom;align=center;outlineConnect=0;dashed=0;html=1;verticalAlign=top;shape=mxgraph.pid.flow_sensors.coriolis;strokeWidth=1;fillColor=default;" parent="1" vertex="1">
          <mxGeometry x="605" y="167" width="50" height="50" as="geometry" />
        </mxCell>
        <mxCell id="3X_EuSHc9vnNttb9hlpx-31" value="" style="endArrow=none;html=1;rounded=0;strokeWidth=2;entryX=0.5;entryY=0;entryDx=0;entryDy=0;entryPerimeter=0;" parent="1" target="3X_EuSHc9vnNttb9hlpx-30" edge="1">
          <mxGeometry width="50" height="50" relative="1" as="geometry">
            <mxPoint x="630" y="145" as="sourcePoint" />
            <mxPoint x="580" y="135" as="targetPoint" />
          </mxGeometry>
        </mxCell>
        <mxCell id="3X_EuSHc9vnNttb9hlpx-32" value="" style="rounded=0;whiteSpace=wrap;html=1;strokeWidth=1;fillColor=default;strokeColor=none;" parent="1" vertex="1">
          <mxGeometry x="607.5" y="181" width="45" height="24" as="geometry" />
        </mxCell>
        <mxCell id="3X_EuSHc9vnNttb9hlpx-33" value="" style="shape=mxgraph.signs.tech.camera_2;html=1;pointerEvents=1;fillColor=#000000;strokeColor=none;verticalLabelPosition=bottom;verticalAlign=top;align=center;strokeWidth=1;" parent="1" vertex="1">
          <mxGeometry x="610.25" y="179.64" width="39.5" height="28.73" as="geometry" />
        </mxCell>
        <mxCell id="3X_EuSHc9vnNttb9hlpx-34" value="" style="rounded=0;whiteSpace=wrap;html=1;strokeWidth=1;fillColor=default;strokeColor=none;" parent="1" vertex="1">
          <mxGeometry x="682.5" y="181.37" width="45" height="24" as="geometry" />
        </mxCell>
        <mxCell id="3X_EuSHc9vnNttb9hlpx-35" value="" style="html=1;verticalLabelPosition=bottom;align=center;labelBackgroundColor=#ffffff;verticalAlign=top;strokeWidth=2;strokeColor=#33001A;shadow=0;dashed=0;shape=mxgraph.ios7.icons.lightbulb;fontSize=15;fillColor=#FFFFFF;" parent="1" vertex="1">
          <mxGeometry x="691.8" y="178" width="26.4" height="30" as="geometry" />
        </mxCell>
        <mxCell id="3X_EuSHc9vnNttb9hlpx-36" value="" style="rounded=0;whiteSpace=wrap;html=1;strokeWidth=1;fillColor=default;strokeColor=none;" parent="1" vertex="1">
          <mxGeometry x="847.5" y="181" width="45" height="24" as="geometry" />
        </mxCell>
        <mxCell id="3X_EuSHc9vnNttb9hlpx-37" value="" style="html=1;verticalLabelPosition=bottom;align=center;labelBackgroundColor=#ffffff;verticalAlign=top;strokeWidth=2;strokeColor=#33001A;shadow=0;dashed=0;shape=mxgraph.ios7.icons.magnet;pointerEvents=1;fontSize=15;fillColor=#FFFFFF;" parent="1" vertex="1">
          <mxGeometry x="857.88" y="181.22000000000003" width="24.24" height="30.3" as="geometry" />
        </mxCell>
        <mxCell id="3X_EuSHc9vnNttb9hlpx-38" value="&lt;font style=&quot;font-size: 15px;&quot;&gt;React Native&lt;/font&gt;" style="shape=cube;whiteSpace=wrap;html=1;boundedLbl=1;backgroundOutline=1;darkOpacity=0.05;darkOpacity2=0.1;" parent="1" vertex="1">
          <mxGeometry x="631" y="46" width="240" height="70" as="geometry" />
        </mxCell>
        <mxCell id="3X_EuSHc9vnNttb9hlpx-39" value="&lt;font style=&quot;font-size: 15px;&quot;&gt;Expo&lt;/font&gt;" style="shape=cube;whiteSpace=wrap;html=1;boundedLbl=1;backgroundOutline=1;darkOpacity=0.05;darkOpacity2=0.1;" parent="1" vertex="1">
          <mxGeometry x="631" y="-4" width="240" height="70" as="geometry" />
        </mxCell>
        <mxCell id="3X_EuSHc9vnNttb9hlpx-40" value="&lt;font style=&quot;font-size: 15px;&quot;&gt;react-navigation&lt;/font&gt;" style="shape=cube;whiteSpace=wrap;html=1;boundedLbl=1;backgroundOutline=1;darkOpacity=0.05;darkOpacity2=0.1;" parent="1" vertex="1">
          <mxGeometry x="631" y="-54" width="240" height="70" as="geometry" />
        </mxCell>
        <mxCell id="3X_EuSHc9vnNttb9hlpx-41" value="" style="shape=cube;whiteSpace=wrap;html=1;boundedLbl=1;backgroundOutline=1;darkOpacity=0.05;darkOpacity2=0.1;" parent="1" vertex="1">
          <mxGeometry x="631" y="-104" width="240.5" height="70" as="geometry" />
        </mxCell>
        <mxCell id="3X_EuSHc9vnNttb9hlpx-42" value="&lt;font style=&quot;font-size: 15px;&quot;&gt;react-native-paho-mqtt&lt;/font&gt;" style="rounded=0;whiteSpace=wrap;html=1;" parent="1" vertex="1">
          <mxGeometry x="651" y="-84" width="220" height="50" as="geometry" />
        </mxCell>
        <mxCell id="3X_EuSHc9vnNttb9hlpx-43" value="" style="shape=cube;whiteSpace=wrap;html=1;boundedLbl=1;backgroundOutline=1;darkOpacity=0.05;darkOpacity2=0.1;" parent="1" vertex="1">
          <mxGeometry x="630" y="-154" width="240.5" height="70" as="geometry" />
        </mxCell>
        <mxCell id="3X_EuSHc9vnNttb9hlpx-44" value="&lt;font style=&quot;font-size: 15px;&quot;&gt;react-native-maps&lt;/font&gt;" style="rounded=0;whiteSpace=wrap;html=1;" parent="1" vertex="1">
          <mxGeometry x="651" y="-134" width="220" height="50" as="geometry" />
        </mxCell>
        <mxCell id="3X_EuSHc9vnNttb9hlpx-57" value="&lt;div style=&quot;&quot;&gt;EVRSRM&lt;/div&gt;" style="edgeStyle=orthogonalEdgeStyle;rounded=0;orthogonalLoop=1;jettySize=auto;html=1;strokeColor=#FF3333;strokeWidth=3;align=center;" parent="1" target="3X_EuSHc9vnNttb9hlpx-17" edge="1" source="3X_EuSHc9vnNttb9hlpx-40">
          <mxGeometry x="0.4121" relative="1" as="geometry">
            <mxPoint x="530" y="-20" as="sourcePoint" />
            <mxPoint x="281.11952764976945" y="70" as="targetPoint" />
            <Array as="points">
              <mxPoint x="456" y="-19" />
              <mxPoint x="456" y="-20" />
            </Array>
            <mxPoint as="offset" />
          </mxGeometry>
        </mxCell>
        <mxCell id="3X_EuSHc9vnNttb9hlpx-52" style="edgeStyle=orthogonalEdgeStyle;rounded=0;orthogonalLoop=1;jettySize=auto;html=1;strokeColor=#97D077;strokeWidth=3;" parent="1" source="3X_EuSHc9vnNttb9hlpx-17" edge="1">
          <mxGeometry relative="1" as="geometry">
            <mxPoint x="650" as="targetPoint" />
            <Array as="points">
              <mxPoint x="650" />
            </Array>
            <mxPoint x="318" y="70" as="sourcePoint" />
          </mxGeometry>
        </mxCell>
        <mxCell id="3X_EuSHc9vnNttb9hlpx-55" value="EVCSNM / EVRSRM" style="edgeLabel;html=1;align=center;verticalAlign=middle;resizable=0;points=[];" parent="3X_EuSHc9vnNttb9hlpx-52" vertex="1" connectable="0">
          <mxGeometry x="-0.6087" y="3" relative="1" as="geometry">
            <mxPoint x="41" y="3" as="offset" />
          </mxGeometry>
        </mxCell>
      </root>
    </mxGraphModel>
  </diagram>
</mxfile>
